/* XPM */
static char *_bd7ef962cbb4a5789f0bef0acc7c8bb2i1BJr1oH6PK4xcQ[] = {
/* columns rows colors chars-per-pixel */
"64 64 61 1 ",
"  c #6F533A",
". c #795737",
"X c #7A5737",
"o c #70533A",
"O c #70543B",
"+ c #72543A",
"@ c #795738",
"# c #75593F",
"$ c #775A3F",
"% c #785A3F",
"& c #785B3F",
"* c #7F5C3D",
"= c #785B40",
"- c #7A5D41",
"; c #7B5D41",
": c #805E3D",
"> c #815F3D",
", c #825F3D",
"< c #815E3E",
"1 c #82603E",
"2 c #83603E",
"3 c #836647",
"4 c #9C7B61",
"5 c #9D7C60",
"6 c #9F7E62",
"7 c #A07E61",
"8 c #A07F61",
"9 c #A28166",
"0 c #A58467",
"q c #A78567",
"w c #AB8962",
"e c #AD8961",
"r c #A88768",
"t c #A98868",
"y c #B18D66",
"u c #B18E66",
"i c #B39067",
"p c #B49067",
"a c #B59267",
"s c #B79564",
"d c #B69368",
"f c #B9956C",
"g c #B9966C",
"h c #BA976C",
"j c #BB976D",
"k c #BC9B6A",
"l c #BE9B6A",
"z c #BD9C6A",
"x c #BF9D6A",
"c c #BE9D6B",
"v c #BC986D",
"b c #BD9A6D",
"n c #BE9B6D",
"m c #C3A070",
"M c #C3A270",
"N c #C5A270",
"B c #C6A371",
"V c #C7A570",
"C c #C7A471",
"Z c #C7A571",
"A c #C8A671",
/* pixels */
"       o....oooo    @@...XX.               o@.XXXXX.ooo         ",
"       o....oo      @@...XX.               o....XXX.ooo         ",
"      oo....o     OO@@@@X.X.  oo          oO....X.X.oooo        ",
"   O$===,,,,======;;**,*,,,,;;%;$%==$$$$$;%&,,,,,,,,========    ",
"   $wiiipppppiiipppw7447uuppppppiiaw6446uuppududupppppduiiie=   ",
"   =ivvvvvvvvvvvvvvjqq8qvjvvvvvvvvvg999qjvvvvvvvvvvvvvvvvvvu=   ",
"   =ivvvvvvvvvvvvvjjq88qgvvvvvvvvvvgr999jvvvvvvvvvvvvvvvvvvd=   ",
"   =ivvvvnnvnvvvjjjjr0qrjvvvvnvnvvvvr9rqvnvnvnvvnnvnvvvnvvvu=oo ",
"   $ivhvAABABZBAABBBhhjnZZZZZZAAZAZZzhhhZZBAAABBABBAABBBvvvp1XX.",
"   ;ihnnZZAAAAAAAAAAjjbjBAAAZAZAZAZBvvhvZZAAAAAAAAAAAAABvvvp1X..",
"   &ivvnZAAAZZAAAAAAjjjjBZZZAAAAAAZZnvvnBAAAAAAAAAAAAAAAvvvp1X.X",
"   &ivnnZZAAzlllxxxluddszzzzllzzzzzvpppplxxzxxxxllllAAABnvvd,XXX",
"   =ivvvAAAz3;;;,222,,11;;;;&;&&;;;;&211,22222,2;;;3xAAAvvvp,...",
"   =pvvvBAAz;O  ..XX...Xo   ooOO    XXXXX.XXXX..oo ;lBAAcvvu,...",
"   =pvvvAAAz;o  ......@X    OOOO    XXXXXXXXXXX.   ;lAABjnju,XXX",
"   =pvvvBAAz;OOO,,,,1111;%;;;;&;;;;;21122222,,,,o  ;lABBjjhu,...",
"   =ivvvAAAx,.X,yupdlxxxzzzzzzzzzzzzxxxxxxzzpppe,..,pvvvtqr6$OOO",
"   $ivvvBAAx,.X,pjvvAAAAAAAAAAAAAAAAAAAAAAAZnvvp,@.,pvvhq994   O",
"   ;dvvvBAAx,XX,uvvnAAAAAAAAAAAAAAAAAAAAAAAZnnvp,..,ivvvq994&   ",
"  O&pvvvAAAx,XX,dnvnBAAAAAAAAAAAAAAAAAAAAAZZnvvp,..,ivvgq006&   ",
"...,ivvvBAAx2XX2lABAAAAAAAAAAAAAAAAAAAAAAAAAAAAz;o ;lZZBvggu;   ",
"...,pvvnBAAx2XX2lAAAAAAAAAAAAAAAAAAAAAAAAAAAAAAz;  =zZAZvvgi$   ",
"...,ivvvBAAx2X.2xAAAAAAAAAAAAAAAAAAAAAAAAAAAAAAz;  ;zZZZvvvi=   ",
"...1uggnBAAl2X.2xAAAAAAVxzzzxxxxxxxxzzzxAAAAAAAz;  ;zZAZvvvu=   ",
"XXX,700rhvvp,..2xAAAAAAz3;;;11212211;&;3zAAAAAAz;  ;lAABvvva1XX.",
"XX.,5990hjvp,..1xAAAAAAz;OooXXXXXXXXOoO;zAAAAAAz%  ;zAABvvvi1X..",
"...,599qvvvp,.@1xAAAAAAz%o oXXXXXXXXooO&zAAAAAAz; o;zAABnvvd1X.X",
"...*60qtvcvp1..,xAAAAAAz;oOO12221121OOO;zAAAAAAz; o;zAAAvvva>XXX",
"  o=ufjvBBAl;  ;lAAAAAAx1XX1szxxxxxs>..1mVVAAAAz&  ;lAABvvvp>..X",
"oo =ujvvBAAz;  ;lAAAAAAx1XX2xVAAAAAx2..2zAAAAAAz;  ;lAAAnvvu>.XX",
"   %ujjvAAAz;  =lAAAAAAx1XX2xAAAAAAx2X.2zAAAAAZz=  ;lAVCvvju,XXX",
"   %djvvBAAl;  ;zAAAAAAx2XX2xAAAAAVl2X.2zAAAZZZk;  ;lBACjvhu,...",
"   =dvvvZAAz;  ;zAAAAAAx,XX,xAABjvlu,XX2xAAAjjnd,X@,dvvvrrq6=   ",
"   =ivvnZAAz;  =zAAAAAAx2XX,xAAAvvlp2XX2xAABnvjp,X@2pvvvr794=   ",
"  O;ivvnZAAz; o;zAAAAAAx2X.,xAAAnvvu2@X2xAAAnvvu,X@,pvvdq774=   ",
"   =ivvvZAZh; o;zAAAAAAz2X.,sxxlpppy,@X2lAABvvvd,XX,dvnjrqq7=   ",
"@X.1dvvvZZZz;o %zAAAAAAz;ooO2222,,11Ooo,xAAAbbjp,XX2lABNgggy=   ",
"@X.,ivvvZZAz;o =zAAAAAAl;ooO.X.....@ooo=lAAAbjbp,XX2xVAAvjjy=   ",
"...,dvvvZZAz;oo;zAAAAAAz;ooo@.X@..@@ oo;lACCbjbp,XX2xAABvvgd=   ",
"...,evdhZZZz;oo,zAAAAAAz3;;;2222211,;=;3lACBbbjp,XX2xAAAvvgy=   ",
".X.,60rrjjld,XX,xAAAAAABnxxlxxxxxxxxlllzZAAAnbjp,XX2xAACvvvd,@@@",
"XX.*567qjjju,XX,xAAAAAAAAAAAAAAAAAAAAAAAAAAZjbbp,XX,xAACnvvy,@.@",
"XXX,7970jjjd,XX,xAAAAAAAAAAAAAAAAAAAAAAAAAABnjjp,XX,xAACnvvd,X..",
"XXX,600rjbju3XX,zAAAAAAAAAAAAAAAAAAAAAAAABABnbjp,XX,xAACvvvh,...",
"XX@,uhhgNBAl,X.,dnvnAAAAAAAAAAAAAAAAAAABjvcvvvnp,XX2xAACbjjd,XXX",
"XXX,pjjjBAAx2X.,uvvnBAAAAAAAAAAAAAAAAAAAvvvvvvjp,XX2xAACnbju,XXX",
"XX@,dvjjAAAx2X.,djjvBAAAAAAAAAAAAAAAAAAAvvvvvvvu,XX2xAABjbju,XXX",
"@@@,dvjjAAAx2X.,yuudlxxxxxxxxxxxxxxxxxxlapppdude,XX,lBBBjjfy,...",
"ooo=ivvvAAAz;OOO111111222222222222222222,,,,,,11+oo;unnjrrr7=   ",
"ooo=ivvvAAAz; oOXXXX..XXXXXXXXXXXXXXXXXXXXXX....ooo=dvnjr794=   ",
" oo=pvvvZAAz&OooXX@@..XXXXXXXXXXXXXXXX@XXXXX.X.@ooo=uvjg7074=   ",
" oo=dvvnZZAn3;;%22222222,,,,2,,,222222,,,,,,2221;;;3dvvgrr97=   ",
"   =ujvnBAAAzzzznzxxnvMvppdpxxxxxxxxxxxlpppsjxxxllllZBABvggw=   ",
"   =dvvvBAAAAAAAAAAAAABCjlvjAAAAAAAAAAABvvvvZAAAZZAAZZABvvvd=   ",
"   =uvvvBAAAAAAAZZZZAACBvvvnAAAAAAAAAAAAvhvnBZAAAAAAAZAZvvvp=   ",
"   =dgvvBAABAZAAZZZZBABMvvvcBBABBBAAABBBhhjvZZAZZZZBAZZBvvjr=   ",
"   =pvvvjjvvcvnvccjvrrqqvvvvvvvvvvvnnvnvq9rtvvvvnnvvnvvvvvvi;   ",
"   =pvvvvvvvvcvvvvvvr76qgvvvvvvvvvvvvvvjq999hvvvvvvvvvvvvvvp&   ",
"   $ivgvvvvvvvvvvvvpq77qgvvvvvvvvvvvvvvj9999hvvvvvvvvvgvvvvp;   ",
"   ;widuppppppudpppu7747eupppiduppppuduu6666waiipppppddudiit$   ",
"    $=======1,,,,,,,===$;%&;%;$=,,,,,,,,$$O%;%%%111,=======%@@..",
"        oooo........    OO      .XXXXXX.  OO OOoXX..o o oooo@@..",
"        oooo.X.X....        oooo..XXXXX.      oo....o   o oo.X..",
"          oo.XXX...O        oooo.XXXXXX.      o ....o     oo...."
};
